<svg xmlns="http://www.w3.org/2000/svg" viewBox="0 0 128 128">
  <circle cx="64" cy="64" r="60" fill="#0d0d0d"/>
  <g transform="translate(8.2, 83.4) scale(0.092933, -0.092933)">
    <path d="M159 -180V-92H314Q359 -92 386.0 -66.5Q413 -41 413 3V49L415 144H414Q404 93 365.5 65.0Q327 37 267 37Q182 37 133.0 91.5Q84 146 84 241V354Q84 449 133.0 504.5Q182 560 267 560Q325 560 363.5 532.0Q402 504 413 455H414V550H511V2Q511 -82 458.0 -131.0Q405 -180 314 -180ZM298 120Q351 120 382.0 153.0Q413 186 413 246V349Q413 408 382.0 441.0Q351 474 298 474Q243 474 213.0 442.5Q183 411 183 357V237Q183 183 213.0 151.5Q243 120 298 120Z" fill="#e8e0d4"/>
    <g transform="translate(600, 0)">
      <path d="M83 63V157L388 304Q407 313 424.0 319.5Q441 326 450 328Q441 330 423.0 336.5Q405 343 388 352L83 500V597L517 383V277Z" fill="#d4a574"/>
    </g>
  </g>
</svg>