<svg xmlns="http://www.w3.org/2000/svg" viewBox="0 0 291 80">
  <g transform="translate(16, 56) scale(0.048000, -0.048000)">
    <path d="M159 -180V-92H314Q359 -92 386.0 -66.5Q413 -41 413 3V49L415 144H414Q404 93 365.5 65.0Q327 37 267 37Q182 37 133.0 91.5Q84 146 84 241V354Q84 449 133.0 504.5Q182 560 267 560Q325 560 363.5 532.0Q402 504 413 455H414V550H511V2Q511 -82 458.0 -131.0Q405 -180 314 -180ZM298 120Q351 120 382.0 153.0Q413 186 413 246V349Q413 408 382.0 441.0Q351 474 298 474Q243 474 213.0 442.5Q183 411 183 357V237Q183 183 213.0 151.5Q243 120 298 120Z" fill="#e8e0d4" transform="translate(0, 0)"/>
    <path d="M83 63V157L388 304Q407 313 424.0 319.5Q441 326 450 328Q441 330 423.0 336.5Q405 343 388 352L83 500V597L517 383V277Z" fill="#d4a574" transform="translate(600, 0)"/>
    <path d="M159 -180V-92H314Q359 -92 386.0 -66.5Q413 -41 413 3V49L415 144H414Q404 93 365.5 65.0Q327 37 267 37Q182 37 133.0 91.5Q84 146 84 241V354Q84 449 133.0 504.5Q182 560 267 560Q325 560 363.5 532.0Q402 504 413 455H414V550H511V2Q511 -82 458.0 -131.0Q405 -180 314 -180ZM298 120Q351 120 382.0 153.0Q413 186 413 246V349Q413 408 382.0 441.0Q351 474 298 474Q243 474 213.0 442.5Q183 411 183 357V237Q183 183 213.0 151.5Q243 120 298 120Z" fill="#e8e0d4" transform="translate(1800, 0)"/>
    <path d="M300 -10Q201 -10 140.5 49.0Q80 108 80 210V340Q80 442 140.5 501.0Q201 560 300 560Q366 560 415.5 533.5Q465 507 492.5 459.5Q520 412 520 349V250H177V202Q177 142 210.0 108.0Q243 74 300 74Q348 74 379.0 92.0Q410 110 416 142H515Q505 72 446.0 31.0Q387 -10 300 -10ZM177 349V323H423V349Q423 412 391.0 446.0Q359 480 300 480Q241 480 209.0 446.0Q177 412 177 349Z" fill="#e8e0d4" transform="translate(2400, 0)"/>
    <path d="M88 0V550H186V445H187Q194 499 232.5 529.5Q271 560 334 560Q416 560 465.0 508.0Q514 456 514 368V0H415V352Q415 412 385.0 444.0Q355 476 303 476Q249 476 218.0 442.5Q187 409 187 349V0Z" fill="#e8e0d4" transform="translate(3000, 0)"/>
    <path d="M264 -10Q181 -10 132.0 45.5Q83 101 83 196V354Q83 449 132.0 504.5Q181 560 264 560Q325 560 365.5 529.0Q406 498 415 444L413 572V730H512V0H414V107Q405 52 365.0 21.0Q325 -10 264 -10ZM298 76Q351 76 382.0 109.0Q413 142 413 202V348Q413 408 382.0 441.0Q351 474 298 474Q243 474 212.5 445.5Q182 417 182 353V197Q182 133 212.5 104.5Q243 76 298 76Z" fill="#e8e0d4" transform="translate(3600, 0)"/>
    <path d="M299 -10Q202 -10 144.0 47.0Q86 104 86 202V550H185V202Q185 144 215.5 110.5Q246 77 299 77Q353 77 384.0 110.5Q415 144 415 202V550H514V202Q514 104 455.5 47.0Q397 -10 299 -10Z" fill="#e8e0d4" transform="translate(4200, 0)"/>
    <path d="M93 0V730H192V326H293L441 550H553L380 287L562 0H448L294 241H192V0Z" fill="#e8e0d4" transform="translate(4800, 0)"/>
  </g>
</svg>